<svg width="587" height="94" viewBox="0 0 587 94" fill="none" xmlns="http://www.w3.org/2000/svg">
<path d="M0.826704 84V5.45454H31.8153C37.7727 5.45454 42.848 6.59233 47.0412 8.8679C51.2344 11.1179 54.4304 14.25 56.6293 18.2642C58.8537 22.2528 59.9659 26.8551 59.9659 32.071C59.9659 37.2869 58.8409 41.8892 56.5909 45.8778C54.3409 49.8665 51.081 52.973 46.8111 55.1974C42.5668 57.4219 37.4276 58.5341 31.3935 58.5341H11.642V45.2259H28.7088C31.9048 45.2259 34.5384 44.6761 36.6094 43.5767C38.706 42.4517 40.2656 40.9048 41.2884 38.9361C42.3366 36.9418 42.8608 34.6534 42.8608 32.071C42.8608 29.4631 42.3366 27.1875 41.2884 25.2443C40.2656 23.2756 38.706 21.7543 36.6094 20.6804C34.5128 19.581 31.8537 19.0312 28.6321 19.0312H17.4332V84H0.826704ZM70.4457 84V25.0909H86.7837V84H70.4457ZM78.6531 17.4972C76.2241 17.4972 74.1403 16.6918 72.4016 15.081C70.6886 13.4446 69.832 11.4886 69.832 9.21306C69.832 6.96306 70.6886 5.03267 72.4016 3.42188C74.1403 1.78551 76.2241 0.967325 78.6531 0.967325C81.082 0.967325 83.1531 1.78551 84.8661 3.42188C86.6048 5.03267 87.4741 6.96306 87.4741 9.21306C87.4741 11.4886 86.6048 13.4446 84.8661 15.081C83.1531 16.6918 81.082 17.4972 78.6531 17.4972ZM99.5646 84V74.2585L128.406 38.5526V38.1307H100.562V25.0909H148.08V35.7145L121.004 70.5384V70.9602H149.077V84H99.5646ZM161.264 84V74.2585L190.105 38.5526V38.1307H162.261V25.0909H209.779V35.7145L182.703 70.5384V70.9602H210.777V84H161.264ZM240.068 85.1122C236.31 85.1122 232.96 84.4602 230.02 83.1562C227.08 81.8267 224.753 79.8707 223.04 77.2884C221.352 74.6804 220.509 71.4332 220.509 67.5469C220.509 64.2741 221.109 61.5256 222.311 59.3011C223.513 57.0767 225.149 55.2869 227.22 53.9318C229.291 52.5767 231.643 51.554 234.277 50.8636C236.936 50.1733 239.723 49.6875 242.638 49.4062C246.064 49.0483 248.825 48.7159 250.922 48.4091C253.018 48.0767 254.54 47.5909 255.486 46.9517C256.432 46.3125 256.905 45.3665 256.905 44.1136V43.8835C256.905 41.4545 256.138 39.5753 254.604 38.2457C253.095 36.9162 250.947 36.2514 248.161 36.2514C245.22 36.2514 242.881 36.9034 241.142 38.2074C239.403 39.4858 238.253 41.0966 237.69 43.0398L222.58 41.8125C223.347 38.233 224.855 35.1392 227.105 32.5312C229.355 29.8977 232.257 27.8778 235.811 26.4716C239.391 25.0398 243.533 24.3239 248.237 24.3239C251.51 24.3239 254.642 24.7074 257.634 25.4744C260.651 26.2415 263.322 27.4304 265.649 29.0412C268.001 30.652 269.855 32.723 271.21 35.2543C272.565 37.7599 273.243 40.7642 273.243 44.267V84H257.749V75.831H257.288C256.342 77.6719 255.077 79.2955 253.491 80.7017C251.906 82.0824 250.001 83.169 247.777 83.9616C245.553 84.7287 242.983 85.1122 240.068 85.1122ZM244.747 73.8366C247.151 73.8366 249.273 73.3636 251.114 72.4176C252.955 71.446 254.399 70.142 255.447 68.5057C256.496 66.8693 257.02 65.0156 257.02 62.9446V56.6932C256.509 57.0256 255.805 57.3324 254.911 57.6136C254.041 57.8693 253.057 58.1122 251.957 58.3423C250.858 58.5469 249.759 58.7386 248.659 58.9176C247.56 59.071 246.562 59.2116 245.668 59.3395C243.75 59.6207 242.075 60.0682 240.643 60.6818C239.212 61.2955 238.099 62.1264 237.307 63.1747C236.514 64.1974 236.118 65.4759 236.118 67.0099C236.118 69.2344 236.923 70.9347 238.534 72.1108C240.17 73.2614 242.241 73.8366 244.747 73.8366Z" fill="white"/>
<g filter="url(#filter0_d_0_1)">
<path d="M256.827 84V5.45454H287.815C293.773 5.45454 298.848 6.59233 303.041 8.8679C307.234 11.1179 310.43 14.25 312.629 18.2642C314.854 22.2528 315.966 26.8551 315.966 32.071C315.966 37.2869 314.841 41.8892 312.591 45.8778C310.341 49.8665 307.081 52.973 302.811 55.1974C298.567 57.4219 293.428 58.5341 287.393 58.5341H267.642V45.2259H284.709C287.905 45.2259 290.538 44.6761 292.609 43.5767C294.706 42.4517 296.266 40.9048 297.288 38.9361C298.337 36.9418 298.861 34.6534 298.861 32.071C298.861 29.4631 298.337 27.1875 297.288 25.2443C296.266 23.2756 294.706 21.7543 292.609 20.6804C290.513 19.581 287.854 19.0312 284.632 19.0312H273.433V84H256.827ZM342.784 5.45454V84H326.446V5.45454H342.784ZM372.67 85.1122C368.911 85.1122 365.562 84.4602 362.621 83.1562C359.681 81.8267 357.354 79.8707 355.641 77.2884C353.954 74.6804 353.11 71.4332 353.11 67.5469C353.11 64.2741 353.711 61.5256 354.913 59.3011C356.114 57.0767 357.751 55.2869 359.822 53.9318C361.893 52.5767 364.245 51.554 366.879 50.8636C369.538 50.1733 372.325 49.6875 375.239 49.4062C378.665 49.0483 381.427 48.7159 383.523 48.4091C385.62 48.0767 387.141 47.5909 388.087 46.9517C389.033 46.3125 389.506 45.3665 389.506 44.1136V43.8835C389.506 41.4545 388.739 39.5753 387.205 38.2457C385.697 36.9162 383.549 36.2514 380.762 36.2514C377.822 36.2514 375.482 36.9034 373.744 38.2074C372.005 39.4858 370.854 41.0966 370.292 43.0398L355.181 41.8125C355.948 38.233 357.457 35.1392 359.707 32.5312C361.957 29.8977 364.859 27.8778 368.413 26.4716C371.992 25.0398 376.134 24.3239 380.839 24.3239C384.112 24.3239 387.244 24.7074 390.235 25.4744C393.252 26.2415 395.924 27.4304 398.251 29.0412C400.603 30.652 402.457 32.723 403.812 35.2543C405.167 37.7599 405.844 40.7642 405.844 44.267V84H390.35V75.831H389.89C388.944 77.6719 387.678 79.2955 386.093 80.7017C384.508 82.0824 382.603 83.169 380.379 83.9616C378.154 84.7287 375.585 85.1122 372.67 85.1122ZM377.349 73.8366C379.752 73.8366 381.874 73.3636 383.715 72.4176C385.556 71.446 387.001 70.142 388.049 68.5057C389.097 66.8693 389.621 65.0156 389.621 62.9446V56.6932C389.11 57.0256 388.407 57.3324 387.512 57.6136C386.643 57.8693 385.658 58.1122 384.559 58.3423C383.46 58.5469 382.36 58.7386 381.261 58.9176C380.161 59.071 379.164 59.2116 378.269 59.3395C376.352 59.6207 374.677 60.0682 373.245 60.6818C371.813 61.2955 370.701 62.1264 369.908 63.1747C369.116 64.1974 368.719 65.4759 368.719 67.0099C368.719 69.2344 369.525 70.9347 371.136 72.1108C372.772 73.2614 374.843 73.8366 377.349 73.8366ZM434.858 49.9432V84H418.52V25.0909H434.091V35.4844H434.781C436.085 32.0582 438.271 29.348 441.339 27.3537C444.408 25.3338 448.128 24.3239 452.5 24.3239C456.591 24.3239 460.158 25.2187 463.2 27.0085C466.243 28.7983 468.608 31.3551 470.295 34.679C471.983 37.9773 472.827 41.9148 472.827 46.4915V84H456.489V49.4062C456.514 45.8011 455.594 42.9886 453.727 40.9688C451.861 38.9233 449.291 37.9006 446.018 37.9006C443.82 37.9006 441.876 38.3736 440.189 39.3196C438.527 40.2656 437.223 41.6463 436.277 43.4616C435.357 45.2514 434.884 47.4119 434.858 49.9432ZM512.55 85.1506C506.49 85.1506 501.275 83.9233 496.902 81.4688C492.556 78.9886 489.206 75.4858 486.854 70.9602C484.502 66.4091 483.326 61.027 483.326 54.8139C483.326 48.7543 484.502 43.4361 486.854 38.8594C489.206 34.2827 492.517 30.7159 496.787 28.1591C501.083 25.6023 506.12 24.3239 511.898 24.3239C515.784 24.3239 519.402 24.9503 522.752 26.2031C526.127 27.4304 529.067 29.2841 531.573 31.7642C534.104 34.2443 536.073 37.3636 537.479 41.1222C538.885 44.8551 539.588 49.2273 539.588 54.2386V58.7259H489.846V48.6009H524.209C524.209 46.2486 523.698 44.1648 522.675 42.3494C521.652 40.5341 520.233 39.1151 518.418 38.0923C516.628 37.044 514.544 36.5199 512.167 36.5199C509.686 36.5199 507.488 37.0952 505.57 38.2457C503.678 39.3707 502.195 40.892 501.121 42.8097C500.047 44.7017 499.498 46.8111 499.472 49.1378V58.7642C499.472 61.679 500.009 64.1974 501.083 66.3196C502.182 68.4418 503.729 70.0781 505.723 71.2287C507.718 72.3793 510.083 72.9545 512.819 72.9545C514.634 72.9545 516.296 72.6989 517.804 72.1875C519.313 71.6761 520.604 70.9091 521.678 69.8864C522.752 68.8636 523.57 67.6108 524.132 66.1278L539.243 67.125C538.476 70.7557 536.904 73.9261 534.526 76.6364C532.174 79.321 529.131 81.4176 525.398 82.9261C521.691 84.4091 517.408 85.1506 512.55 85.1506ZM581.584 25.0909V37.3636H546.108V25.0909H581.584ZM554.162 10.9773H570.5V65.8977C570.5 67.4062 570.73 68.5824 571.191 69.4261C571.651 70.2443 572.29 70.8196 573.108 71.152C573.952 71.4844 574.924 71.6506 576.023 71.6506C576.79 71.6506 577.557 71.5866 578.324 71.4588C579.091 71.3054 579.679 71.1903 580.088 71.1136L582.658 83.2713C581.84 83.527 580.689 83.821 579.206 84.1534C577.723 84.5114 575.921 84.7287 573.799 84.8054C569.861 84.9588 566.409 84.4347 563.444 83.233C560.503 82.0312 558.215 80.1648 556.578 77.6335C554.942 75.1023 554.137 71.9062 554.162 68.0455V10.9773Z" fill="#E97601"/>
</g>
<defs>
<filter id="filter0_d_0_1" x="252.827" y="5.45454" width="333.831" height="87.696" filterUnits="userSpaceOnUse" color-interpolation-filters="sRGB">
<feFlood flood-opacity="0" result="BackgroundImageFix"/>
<feColorMatrix in="SourceAlpha" type="matrix" values="0 0 0 0 0 0 0 0 0 0 0 0 0 0 0 0 0 0 127 0" result="hardAlpha"/>
<feOffset dy="4"/>
<feGaussianBlur stdDeviation="2"/>
<feComposite in2="hardAlpha" operator="out"/>
<feColorMatrix type="matrix" values="0 0 0 0 0 0 0 0 0 0 0 0 0 0 0 0 0 0 0.25 0"/>
<feBlend mode="normal" in2="BackgroundImageFix" result="effect1_dropShadow_0_1"/>
<feBlend mode="normal" in="SourceGraphic" in2="effect1_dropShadow_0_1" result="shape"/>
</filter>
</defs>
</svg>
